<svg xmlns="http://www.w3.org/2000/svg" width="21.001" height="20.001" viewBox="0 0 21.001 20.001"><defs><style>.a,.c{fill:#707070;}.b,.c{stroke:none;}</style></defs><g class="a" transform="translate(-1984 -6315)"><path class="b" d="M 1996.650146484375 6334.00048828125 L 1992.35009765625 6334.00048828125 L 1992.35009765625 6321 L 1992.35009765625 6320 L 1991.35009765625 6320 L 1984.999755859375 6320 L 1984.999755859375 6315.99951171875 L 2004.00048828125 6315.99951171875 L 2004.00048828125 6320 L 1997.650146484375 6320 L 1996.650146484375 6320 L 1996.650146484375 6321 L 1996.650146484375 6334.00048828125 Z"/><path class="c" d="M 1995.650146484375 6333.00048828125 L 1995.650146484375 6321 L 1995.650146484375 6319 L 1997.650146484375 6319 L 2003.00048828125 6319 L 2003.00048828125 6316.99951171875 L 1985.999755859375 6316.99951171875 L 1985.999755859375 6319 L 1991.35009765625 6319 L 1993.35009765625 6319 L 1993.35009765625 6321 L 1993.35009765625 6333.00048828125 L 1995.650146484375 6333.00048828125 M 1997.650146484375 6335.00048828125 L 1991.35009765625 6335.00048828125 L 1991.35009765625 6321 L 1983.999755859375 6321 L 1983.999755859375 6314.99951171875 L 2005.00048828125 6314.99951171875 L 2005.00048828125 6321 L 1997.650146484375 6321 L 1997.650146484375 6335.00048828125 Z"/></g></svg>