<svg xmlns="http://www.w3.org/2000/svg" width="20" height="32.174" viewBox="0 0 20 32.174"><defs><style>.a,.b,.e{fill:none;}.b{stroke:#fff;stroke-width:2px;}.c,.d{stroke:none;}.d{fill:#fff;}</style></defs><g transform="translate(-0.374 0.205)"><g class="a" transform="translate(0.374 -0.205)"><path class="c" d="M.032,9.528A9.766,9.766,0,0,1,10.016,0,9.766,9.766,0,0,1,20,9.532q0,.326-.023.647c-.033,5.7-4.7,21.995-9.962,21.995C4.581,32.174-.447,16.728.032,9.528Z"/><path class="d" d="M 10.01558399200439 1.999996185302734 C 5.614964485168457 1.999996185302734 2.033374786376953 5.377456665039063 2.031623840332031 9.528905868530273 L 2.031593322753906 9.594875335693359 L 2.027223587036133 9.660696029663086 C 1.859434127807617 12.18527603149414 2.481245040893555 16.11132621765137 3.650004386901855 19.90673637390137 C 4.893943786621094 23.94626617431641 6.548354148864746 27.26865577697754 8.189034461975098 29.02199554443359 C 8.874053955078125 29.75405502319336 9.539804458618164 30.17391586303711 10.01558399200439 30.17391586303711 C 10.89200401306152 30.17391586303711 12.96640396118164 28.15727615356445 15.08907413482666 22.60154724121094 C 16.94634437561035 17.74047470092773 17.9633846282959 12.56704521179199 17.97739410400391 10.16731643676758 L 17.97777366638184 10.10272598266602 L 17.98232460021973 10.03828620910645 C 17.99405479431152 9.871915817260742 18.00000381469727 9.701576232910156 18.00000381469727 9.53199577331543 C 18.00000381469727 5.378835678100586 14.41820430755615 1.999996185302734 10.01558399200439 1.999996185302734 M 10.01558399200439 -3.814697265625e-06 C 15.52958393096924 -3.814697265625e-06 20.00000381469727 4.267105102539063 20.00000381469727 9.53199577331543 C 20.00000381469727 9.749446868896484 19.99245452880859 9.965045928955078 19.97736358642578 10.17899513244629 C 19.94406318664551 15.88272666931152 15.27790451049805 32.17391586303711 10.01558399200439 32.17391586303711 C 4.580604553222656 32.17391586303711 -0.4468955993652344 16.72795486450195 0.03162384033203125 9.528066635131836 C 0.033843994140625 4.265035629272461 4.502923965454102 -3.814697265625e-06 10.01558399200439 -3.814697265625e-06 Z"/></g><g class="b" transform="translate(3.94 4.689)"><ellipse class="c" cx="5.901" cy="5.65" rx="5.901" ry="5.65"/><ellipse class="e" cx="5.901" cy="5.65" rx="4.901" ry="4.65"/></g></g></svg>