<svg xmlns="http://www.w3.org/2000/svg" width="25" height="25" viewBox="0 0 25 25"><defs><style>.a,.b,.d{fill:none;}.a,.b{stroke:#fff6f6;stroke-width:2px;}.b{stroke-linecap:round;}.c{stroke:none;}</style></defs><g transform="translate(-124 -301)"><g class="a" transform="translate(124 301)"><rect class="c" width="25" height="25" rx="5"/><rect class="d" x="1" y="1" width="23" height="23" rx="4"/></g><path class="b" d="M0,0,11.948,14.107" transform="matrix(0.996, -0.087, 0.087, 0.996, 130.027, 306.804)"/><path class="b" d="M0,0,8.2,9.681" transform="matrix(0.996, -0.087, 0.087, 0.996, 129.273, 312.474)"/><path class="b" d="M0,0,8.2,9.681" transform="matrix(0.996, -0.087, 0.087, 0.996, 135.556, 306.191)"/><path class="b" d="M0,0,3.414,4.03" transform="matrix(0.996, -0.087, 0.087, 0.996, 128.627, 318.284)"/><path class="b" d="M0,0,3.414,4.03" transform="matrix(0.996, -0.087, 0.087, 0.996, 141.193, 305.718)"/></g></svg>